{"title":"Avatar 2009 DVD9rip English Klam","uid":6539956,"size":2210518214,"categoryP":"video","categoryS":"movies","magnet":"?xt=urn:btih:6093df7f935115853e5bb1dc75841702a371e676&amp;dn=Avatar+2009+DVD9rip+English+Klam&amp;tr=udp%3A%2F%2Ftracker.openbittorrent.com%3A80&amp;tr=udp%3A%2F%2Fopen.demonii.com%3A1337&amp;tr=udp%3A%2F%2Ftracker.coppersurfer.tk%3A6969&amp;tr=udp%3A%2F%2Fexodus.desync.com%3A6969","seeders":1,"leechers":0,"uploader":"Klambake","files":-1,"time":1310655490,"description":"With: Sam Worthington, Sigourney Weaver and Zoe Saldana\n\nJake Sully (Sam Worthington) is een verlamde oorlogsveteraan in de toekomst, die met enkele anderen naar de maan Pandora wordt gebracht. De mensheid wil daar waardevolle grondstoffen uit de grond halen. Deze planeet wordt echter bewoond door de Na\\'vi, een mens-achtig ras met hun eigen taal en cultuur. De Na\\'vi doen er alles aan zich te beschermen tegen de mensen. Sully raakt betrokken bij hun vrijheidsstrijd, en wordt ook verliefd op ÃƒÂ©ÃƒÂ©n van hen...\n\nA paraplegic marine dispatched to the moon Pandora on a unique mission becomes torn between following his orders and protecting the world he feels is his home. \n\n------------------ Dutch Friends ------------------\nYou can find my Friends at: http://www.Film-Test.nl \n------ They got my dutchs subs ---- and more ------\n\nGeneral:\n\nComplete name                    : Avatar\\\\Avatar.avi\nFormat                           : AVI\nFormat/Info                      : Audio Video Interleave\nFile size                        : 2.06 GiB\nDuration                         : 2h 35mn\nOverall bit rate                 : 1 900 Kbps\n\nVideo:\n\nFormat                           : MPEG-4 Visual\nFormat profile                   : Simple@L3\nFormat settings, BVOP            : No\nFormat settings, QPel            : No\nFormat settings, GMC             : No warppoints\nFormat settings, Matrix          : Default (H.263)\nCodec ID                         : XVID\nCodec ID/Hint                    : XviD\nDuration                         : 2h 35mn\nBit rate                         : 1 505 Kbps\nWidth                            : 704 pixels\nHeight                           : 396 pixels\nDisplay aspect ratio             : 16:9\nFrame rate                       : 25.000 fps\nColor space                      : YUV\nChroma subsampling               : 4:2:0\nBit depth                        : 8 bits\nScan type                        : Progressive\nBits/(Pixel*Frame)               : 0.216\nStream size                      : 1.63 GiB (79%)\nWriting library                  : XviD 1.1.2 (UTC 2006-11-01)\n\nAudio:\n\nFormat                           : AC-3\nFormat/Info                      : Audio Coding 3\nMode extension                   : CM (complete main)\nCodec ID                         : 2000\nDuration                         : 2h 35mn\nBit rate mode                    : Constant\nBit rate                         : 384 Kbps\nChannel(s)                       : 6 channels\nChannel positions                : Front: L C R, Side: L R, LFE\nSampling rate                    : 48.0 KHz\nBit depth                        : 16 bits\nStream size                      : 426 MiB (20%)\nAlignment                        : Aligned on interleaves\nInterleave, duration             : 32 ms (0.80 video frame)\nInterleave, preload duration     : 192 ms\n\n","torrent":{"xt":"urn:btih:6093df7f935115853e5bb1dc75841702a371e676","amp;dn":"Avatar+2009+DVD9rip+English+Klam","amp;tr":["udp%3A%2F%2Ftracker.openbittorrent.com%3A80","udp%3A%2F%2Fopen.demonii.com%3A1337","udp%3A%2F%2Ftracker.coppersurfer.tk%3A6969","udp%3A%2F%2Fexodus.desync.com%3A6969"],"infoHash":"6093df7f935115853e5bb1dc75841702a371e676","infoHashBuffer":{"type":"Buffer","data":[96,147,223,127,147,81,21,133,62,91,177,220,117,132,23,2,163,113,230,118]},"announce":[],"urlList":[]}}